# xmcd
#
# Track frame offsets: 
#        300
#        12942
#        26085
#        40892
#        55121
#        68243
#        82235
#        93965
#        109601
#        122758
#        136869
#        149072
#        162062
#        175121
#        189858
#        201803
#
# Disc length: 2871 seconds
#
# Revision: 1
# Processed by: cddbd v1.5.2PL0 Copyright (c) Steve Scherf et al.
# Submitted via: ExactAudioCopy v1.0b1
#
DISCID=d90b3310
DTITLE=T-Bone Walker - Mean Old World
DYEAR=2002
DGENRE=Blues
TTITLE0=Don't Leave Me Baby
TTITLE1=I'm Gonna Find My Baby
TTITLE2=I Got A Break Baby
TTITLE3=I Can't Stand Being Away From You
TTITLE4=Mean Old World
TTITLE5=Come Back To Me Baby
TTITLE6=Low Down Dirty Shame
TTITLE7=Evening
TTITLE8=She's Going To Ruin Me
TTITLE9=Trinity River Blues
TTITLE10=No Worry Blues
TTITLE11=My Baby Left Me
TTITLE12=I'm Still In Love With You
TTITLE13=T-Bone Blues
TTITLE14=Bobby Sox Blues
TTITLE15=T-Bone Boogie
EXTD=
EXTT0=
EXTT1=
EXTT2=
EXTT3=
EXTT4=
EXTT5=
EXTT6=
EXTT7=
EXTT8=
EXTT9=
EXTT10=
EXTT11=
EXTT12=
EXTT13=
EXTT14=
EXTT15=
PLAYORDER=
